<svg xmlns="http://www.w3.org/2000/svg" viewBox="0 0 240 240" role="img" aria-labelledby="title desc">
  <title id="title">CodeAgent 交流群二维码占位</title>
  <desc id="desc">请替换为 CodeAgent 交流群真实二维码</desc>
  <rect width="240" height="240" fill="#ffffff"/>
  <rect x="12" y="12" width="216" height="216" rx="18" fill="#f5f8fc" stroke="#c8d7e8" stroke-width="2"/>
  <g fill="#172033">
    <path d="M32 32h54v54H32zM154 32h54v54h-54zM32 154h54v54H32z"/>
    <path fill="#f5f8fc" d="M43 43h32v32H43zM165 43h32v32h-32zM43 165h32v32H43z"/>
    <path d="M98 32h14v28H98zM122 32h28v14h-28zM102 72h34v14h-34zM148 68h14v28h-14zM184 96h22v14h-22zM96 100h22v22H96zM128 98h16v16h-16zM154 112h34v14h-34zM196 122h12v34h-12zM98 134h40v14H98zM148 142h14v24h-14zM174 148h20v14h-20zM100 164h14v44h-14zM122 180h28v12h-28zM160 174h16v34h-16zM184 184h24v24h-24z"/>
  </g>
  <rect x="62" y="105" width="116" height="44" rx="12" fill="#ffffff" stroke="#c8d7e8"/>
  <text x="120" y="124" text-anchor="middle" font-family="Arial, sans-serif" font-size="12" font-weight="700" fill="#2563eb">CodeAgent 交流群</text>
  <text x="120" y="140" text-anchor="middle" font-family="Arial, sans-serif" font-size="10" fill="#69778c">替换真实二维码</text>
</svg>
